# Blender v2.80 (sub 75) OBJ File: 'anorganik3.blend'
# www.blender.org
mtllib anorganik3.mtl
o Cylinder.001
v -0.013942 0.000611 -0.253458
v 0.025382 -0.063437 -0.197699
v 0.035505 0.000611 -0.248588
v 0.063196 -0.063437 -0.186229
v 0.083052 0.000611 -0.234165
v 0.098045 -0.063437 -0.167601
v 0.126872 0.000611 -0.210743
v 0.128591 -0.063437 -0.142533
v 0.165280 0.000611 -0.179222
v 0.153659 -0.063437 -0.111988
v 0.196801 0.000611 -0.140814
v 0.172286 -0.063437 -0.077138
v 0.220223 0.000611 -0.096994
v 0.183757 -0.063437 -0.039325
v 0.234646 0.000611 -0.049447
v 0.187630 -0.063437 -0.000000
v 0.239516 0.000611 -0.000000
v 0.183757 -0.063437 0.039325
v 0.234646 0.000611 0.049447
v 0.172286 -0.063437 0.077138
v 0.220223 0.000611 0.096994
v 0.153659 -0.063437 0.111987
v 0.196801 0.000611 0.140814
v 0.128591 -0.063437 0.142533
v 0.165280 0.000611 0.179222
v 0.098045 -0.063437 0.167601
v 0.126871 0.000611 0.210743
v 0.063196 -0.063437 0.186228
v 0.083052 0.000611 0.234165
v 0.025382 -0.063437 0.197699
v 0.035505 0.000611 0.248588
v -0.013943 -0.063437 0.201572
v -0.053267 -0.063437 0.197699
v -0.063389 0.000611 -0.248588
v -0.013942 0.022221 -0.457051
v 0.075224 0.022221 -0.448269
v 0.160963 0.022221 -0.422260
v 0.239982 0.022221 -0.380024
v 0.309241 0.022221 -0.323184
v 0.366082 0.022221 -0.253924
v 0.408318 0.022221 -0.174906
v 0.434327 0.022221 -0.089166
v 0.443109 0.022221 -0.000000
v 0.434327 0.022221 0.089166
v 0.408318 0.022221 0.174906
v 0.366082 0.022221 0.253924
v 0.309241 0.022221 0.323184
v 0.239982 0.022221 0.380024
v 0.160963 0.022221 0.422260
v 0.075224 0.022221 0.448269
v -0.103108 0.022221 -0.448269
v 0.025382 -0.080353 -0.197699
v 0.035505 -0.025862 -0.248588
v -0.013881 -0.025862 -0.253459
v 0.063196 -0.080353 -0.186229
v 0.083052 -0.025862 -0.234165
v 0.098045 -0.080353 -0.167601
v 0.126872 -0.025862 -0.210743
v 0.128591 -0.080353 -0.142533
v 0.165280 -0.025862 -0.179222
v 0.153659 -0.080353 -0.111988
v 0.196801 -0.025862 -0.140814
v 0.172286 -0.080353 -0.077138
v 0.220223 -0.025862 -0.096994
v 0.183757 -0.080353 -0.039325
v 0.234646 -0.025862 -0.049447
v 0.187630 -0.080353 -0.000000
v 0.239516 -0.025862 -0.000000
v 0.183757 -0.080353 0.039325
v 0.234646 -0.025862 0.049447
v 0.172286 -0.080353 0.077138
v 0.220223 -0.025862 0.096994
v 0.153659 -0.080353 0.111987
v 0.196801 -0.025862 0.140814
v 0.128591 -0.080353 0.142533
v 0.165280 -0.025862 0.179222
v 0.098045 -0.080353 0.167601
v 0.126871 -0.025862 0.210743
v 0.063196 -0.080353 0.186228
v 0.083052 -0.025862 0.234165
v 0.025382 -0.080353 0.197699
v 0.035505 -0.025862 0.248588
v -0.013943 -0.080353 0.201572
v -0.053267 -0.080353 0.197699
v -0.063389 -0.025862 -0.248588
v 0.055364 0.011416 -0.348429
v 0.122008 0.011416 -0.328213
v 0.183427 0.011416 -0.295384
v 0.237261 0.011416 -0.251203
v 0.281441 0.011416 -0.197369
v 0.314270 0.011416 -0.135950
v 0.334486 0.011416 -0.069307
v 0.341312 0.011416 -0.000000
v 0.334486 0.011416 0.069307
v 0.314270 0.011416 0.135950
v 0.281441 0.011416 0.197369
v 0.237261 0.011416 0.251203
v 0.183427 0.011416 0.295384
v 0.122008 0.011416 0.328213
v 0.055364 0.011416 0.348429
v -0.013943 0.011416 0.355255
v -0.083249 0.011416 0.348429
v -0.000834 -0.063437 0.065900
v -0.027051 -0.063437 -0.065900
v -0.083249 -0.001821 0.348429
v -0.013943 -0.001820 0.355255
v 0.055364 -0.001821 0.348429
v 0.122008 -0.001821 0.328213
v 0.183427 -0.001821 0.295384
v 0.237261 -0.001821 0.251203
v 0.281441 -0.001821 0.197369
v 0.314270 -0.001821 0.135950
v 0.334486 -0.001821 0.069307
v 0.341312 -0.001821 -0.000000
v 0.334486 -0.001821 -0.069307
v 0.314270 -0.001821 -0.135950
v 0.281441 -0.001821 -0.197369
v 0.237261 -0.001821 -0.251203
v 0.183427 -0.001821 -0.295384
v 0.122008 -0.001821 -0.328213
v 0.055364 -0.001821 -0.348429
v -0.000834 -0.080353 0.065900
v -0.027051 -0.080353 -0.065900
v -0.013820 -0.040404 -0.220178
v -0.013903 0.004588 -0.290340
v -0.013942 0.015356 -0.392199
v -0.013943 0.016819 0.392138
v -0.013943 0.006014 0.290229
v -0.013943 -0.016608 0.290229
v -0.013943 -0.031413 0.227515
v -0.013943 -0.053108 0.227515
v -0.013943 0.006254 0.391884
v -0.013851 -0.060849 -0.220174
v -0.013942 0.006905 -0.392199
v -0.013903 -0.015846 -0.290190
v -0.087378 -0.063437 -0.201572
v -0.048054 -0.063437 -0.197699
v -0.037931 0.000611 0.248588
v -0.087378 0.000611 0.253458
v -0.126703 -0.063437 0.197699
v -0.136826 0.000611 0.248588
v -0.164517 -0.063437 0.186228
v -0.184373 0.000611 0.234165
v -0.199366 -0.063437 0.167601
v -0.228192 0.000611 0.210743
v -0.229912 -0.063437 0.142533
v -0.266601 0.000611 0.179222
v -0.254980 -0.063437 0.111987
v -0.298121 0.000611 0.140814
v -0.273607 -0.063437 0.077138
v -0.321544 0.000611 0.096994
v -0.285078 -0.063437 0.039325
v -0.335967 0.000611 0.049447
v -0.288951 -0.063437 -0.000000
v -0.340837 0.000611 -0.000000
v -0.285077 -0.063437 -0.039325
v -0.335967 0.000611 -0.049448
v -0.273607 -0.063437 -0.077139
v -0.321543 0.000611 -0.096995
v -0.254979 -0.063437 -0.111988
v -0.298121 0.000611 -0.140814
v -0.229911 -0.063437 -0.142533
v -0.266600 0.000611 -0.179222
v -0.199366 -0.063437 -0.167601
v -0.228192 0.000611 -0.210743
v -0.164516 -0.063437 -0.186229
v -0.184372 0.000611 -0.234165
v -0.126703 -0.063437 -0.197699
v -0.136825 0.000611 -0.248588
v 0.001788 0.022221 0.448269
v -0.087379 0.022221 0.457051
v -0.176545 0.022221 0.448269
v -0.262284 0.022221 0.422260
v -0.341303 0.022221 0.380024
v -0.410563 0.022221 0.323184
v -0.467403 0.022221 0.253924
v -0.509639 0.022221 0.174906
v -0.535648 0.022221 0.089166
v -0.544430 0.022221 -0.000000
v -0.535647 0.022221 -0.089167
v -0.509638 0.022221 -0.174906
v -0.467402 0.022221 -0.253924
v -0.410562 0.022221 -0.323184
v -0.341302 0.022221 -0.380024
v -0.262284 0.022221 -0.422260
v -0.176544 0.022221 -0.448269
v -0.087348 -0.080353 -0.201572
v -0.048054 -0.080353 -0.197699
v -0.037931 -0.025862 0.248588
v -0.087378 -0.025862 0.253458
v -0.126703 -0.080353 0.197699
v -0.136826 -0.025862 0.248588
v -0.164517 -0.080353 0.186228
v -0.184373 -0.025862 0.234165
v -0.199366 -0.080353 0.167601
v -0.228192 -0.025862 0.210743
v -0.229912 -0.080353 0.142533
v -0.266601 -0.025862 0.179222
v -0.254980 -0.080353 0.111987
v -0.298121 -0.025862 0.140814
v -0.273607 -0.080353 0.077138
v -0.321544 -0.025862 0.096994
v -0.285078 -0.080353 0.039325
v -0.335967 -0.025862 0.049447
v -0.288951 -0.080353 -0.000000
v -0.340837 -0.025862 -0.000000
v -0.285077 -0.080353 -0.039325
v -0.335967 -0.025862 -0.049448
v -0.273607 -0.080353 -0.077139
v -0.321543 -0.025862 -0.096995
v -0.254979 -0.080353 -0.111988
v -0.298121 -0.025862 -0.140814
v -0.229911 -0.080353 -0.142533
v -0.266600 -0.025862 -0.179222
v -0.199366 -0.080353 -0.167601
v -0.228192 -0.025862 -0.210743
v -0.164516 -0.080353 -0.186229
v -0.184372 -0.025862 -0.234165
v -0.126703 -0.080353 -0.197699
v -0.136825 -0.025862 -0.248588
v -0.087378 0.011416 -0.355255
v -0.018072 0.011416 -0.348429
v -0.156685 0.011416 0.348429
v -0.223329 0.011416 0.328213
v -0.284748 0.011416 0.295383
v -0.338582 0.011416 0.251203
v -0.382762 0.011416 0.197369
v -0.415591 0.011416 0.135950
v -0.435807 0.011416 0.069306
v -0.442633 0.011416 -0.000000
v -0.435807 0.011416 -0.069307
v -0.415591 0.011416 -0.135951
v -0.382762 0.011416 -0.197369
v -0.338581 0.011416 -0.251203
v -0.284747 0.011416 -0.295384
v -0.223328 0.011416 -0.328213
v -0.156685 0.011416 -0.348429
v -0.415591 -0.001821 0.135950
v -0.074270 -0.063437 0.065900
v -0.100486 -0.063437 -0.065900
v -0.382762 -0.001821 0.197369
v -0.338582 -0.001821 0.251203
v -0.284748 -0.001821 0.295383
v -0.223329 -0.001821 0.328213
v -0.156685 -0.001821 0.348429
v -0.018072 -0.001821 -0.348429
v -0.087378 -0.001820 -0.355255
v -0.156685 -0.001821 -0.348429
v -0.223328 -0.001821 -0.328213
v -0.284747 -0.001821 -0.295384
v -0.338581 -0.001821 -0.251203
v -0.382762 -0.001821 -0.197369
v -0.415591 -0.001821 -0.135951
v -0.435807 -0.001821 -0.069307
v -0.442633 -0.001821 -0.000000
v -0.435807 -0.001821 0.069306
v -0.074270 -0.080353 0.065900
v -0.100486 -0.080353 -0.065900
v -0.087256 -0.040404 -0.220178
v -0.087339 0.004588 -0.290340
v -0.087378 0.015356 -0.392199
v -0.087379 0.016819 0.392138
v -0.087378 0.006014 0.290229
v -0.087378 -0.016608 0.290229
v -0.087378 -0.031413 0.227515
v -0.087378 -0.053108 0.227515
v -0.087379 0.006254 0.391884
v -0.087287 -0.060849 -0.220174
v -0.087378 0.006905 -0.392199
v -0.087339 -0.017185 -0.290190
vn -0.2260 0.6276 0.7450
vn -0.3670 0.6276 0.6866
vn -0.4939 0.6276 0.6018
vn -0.6018 0.6276 0.4939
vn -0.6866 0.6276 0.3670
vn -0.7450 0.6276 0.2260
vn -0.7748 0.6276 0.0763
vn -0.7748 0.6276 -0.0763
vn -0.7450 0.6276 -0.2260
vn -0.6866 0.6276 -0.3670
vn -0.6018 0.6276 -0.4939
vn -0.4939 0.6276 -0.6018
vn -0.3670 0.6276 -0.6866
vn -0.2260 0.6276 -0.7450
vn 0.0000 -1.0000 0.0000
vn 0.2107 -0.6878 -0.6946
vn 0.3422 -0.6878 -0.6402
vn 0.4605 -0.6878 -0.5611
vn 0.5611 -0.6878 -0.4605
vn 0.6402 -0.6878 -0.3422
vn 0.6946 -0.6878 -0.2107
vn 0.7224 -0.6878 -0.0711
vn 0.7224 -0.6878 0.0711
vn 0.6946 -0.6878 0.2107
vn 0.6402 -0.6878 0.3422
vn 0.5611 -0.6878 0.4605
vn 0.4605 -0.6878 0.5611
vn 0.3422 -0.6878 0.6402
vn 0.2107 -0.6878 0.6946
vn -0.0670 0.9730 -0.2210
vn -0.1088 0.9730 -0.2036
vn -0.1465 0.9730 -0.1785
vn -0.1785 0.9730 -0.1465
vn -0.2036 0.9730 -0.1088
vn -0.2210 0.9730 -0.0670
vn -0.2298 0.9730 -0.0226
vn -0.2298 0.9730 0.0226
vn -0.2210 0.9730 0.0670
vn -0.2036 0.9730 0.1088
vn -0.1785 0.9730 0.1465
vn -0.1465 0.9730 0.1785
vn -0.1088 0.9730 0.2036
vn -0.0670 0.9730 0.2210
vn 0.0212 0.9763 -0.2152
vn 0.0759 -0.6278 -0.7747
vn -0.0762 -0.6284 -0.7742
vn 0.0218 0.9749 -0.2217
vn -0.0169 0.9737 -0.2273
vn -0.0763 0.6276 -0.7748
vn 0.0763 0.6276 -0.7748
vn 0.0711 -0.6878 0.7224
vn -0.0711 -0.6878 0.7224
vn -0.0277 0.9739 -0.2252
vn 0.0000 1.0000 0.0000
vn 0.0711 0.6876 0.7226
vn -0.0716 0.6877 0.7225
vn 0.0226 0.9730 0.2298
vn -0.0226 0.9730 0.2298
vn 0.0259 0.9645 0.2630
vn -0.0063 0.9705 0.2411
vn 0.5323 0.0000 -0.8465
vn 0.5340 0.0000 -0.8455
vn 0.6428 0.0034 0.7661
vn 0.6440 0.0025 0.7651
vn 0.4972 -0.0004 -0.8677
vn 0.4970 -0.0005 -0.8677
vn -0.9292 0.0000 -0.3696
vn -0.9808 0.0000 0.1951
vn -0.6042 0.0000 0.7969
vn -0.3921 0.0000 0.9199
vn 0.6441 -0.0000 0.7649
vn 0.6431 -0.0000 0.7658
vn 0.5317 0.0090 -0.8469
vn 0.5317 0.0203 -0.8467
vn 0.0308 -0.9944 -0.1015
vn 0.0500 -0.9944 -0.0935
vn 0.0673 -0.9944 -0.0820
vn 0.0820 -0.9944 -0.0673
vn 0.0935 -0.9944 -0.0500
vn 0.1015 -0.9944 -0.0308
vn 0.1055 -0.9944 -0.0104
vn 0.1055 -0.9944 0.0104
vn 0.1015 -0.9944 0.0308
vn 0.0935 -0.9944 0.0500
vn 0.0820 -0.9944 0.0673
vn 0.0673 -0.9944 0.0820
vn 0.0500 -0.9944 0.0935
vn 0.0308 -0.9944 0.1015
vn -0.0104 -0.9944 -0.1053
vn 0.0103 -0.9944 -0.1055
vn 0.0096 -0.9943 -0.1061
vn -0.0106 -0.9942 -0.1072
vn -0.0029 -0.9930 0.1181
vn -0.0143 -0.9893 0.1449
vn -0.0051 -0.9951 0.0984
vn -0.0082 -0.9965 0.0828
vn 0.7748 0.6276 0.0763
vn 0.7450 0.6276 0.2260
vn 0.6866 0.6276 0.3670
vn 0.6018 0.6276 0.4939
vn 0.4939 0.6276 0.6018
vn 0.3670 0.6276 0.6866
vn 0.2260 0.6276 0.7450
vn 0.2260 0.6276 -0.7450
vn 0.3670 0.6276 -0.6866
vn 0.4939 0.6276 -0.6018
vn 0.6018 0.6276 -0.4939
vn 0.6866 0.6276 -0.3670
vn 0.7450 0.6276 -0.2260
vn 0.7748 0.6276 -0.0763
vn -0.7224 -0.6878 -0.0711
vn -0.6946 -0.6878 -0.2107
vn -0.6402 -0.6878 -0.3422
vn -0.5611 -0.6878 -0.4605
vn -0.4605 -0.6878 -0.5611
vn -0.3422 -0.6878 -0.6402
vn -0.2107 -0.6878 -0.6946
vn -0.2107 -0.6878 0.6946
vn -0.3422 -0.6878 0.6402
vn -0.4605 -0.6878 0.5611
vn -0.5611 -0.6878 0.4605
vn -0.6402 -0.6878 0.3422
vn -0.6946 -0.6878 0.2107
vn -0.7224 -0.6878 0.0711
vn 0.2036 0.9730 -0.1088
vn 0.1785 0.9730 -0.1465
vn 0.1465 0.9730 -0.1785
vn 0.1088 0.9730 -0.2036
vn 0.0670 0.9730 -0.2210
vn 0.0670 0.9730 0.2210
vn 0.1088 0.9730 0.2036
vn 0.1465 0.9730 0.1785
vn 0.1785 0.9730 0.1465
vn 0.2036 0.9730 0.1088
vn 0.2210 0.9730 0.0670
vn 0.2298 0.9730 0.0226
vn 0.2298 0.9730 -0.0226
vn 0.2210 0.9730 -0.0670
vn -0.0234 0.9710 -0.2379
vn 0.0755 0.6273 0.7751
vn -0.0764 0.6268 0.7754
vn -0.0157 -0.9720 0.2346
vn 0.0240 -0.9695 0.2440
vn 0.0271 0.9722 -0.2325
vn 0.0711 -0.6885 -0.7217
vn -0.0714 -0.6880 -0.7222
vn -0.5317 -0.0203 0.8467
vn -0.5317 -0.0090 0.8469
vn 0.3921 0.0000 -0.9199
vn 0.6042 0.0000 -0.7969
vn 0.9292 0.0000 0.3696
vn 0.9808 0.0000 -0.1951
vn -0.6440 -0.0024 -0.7650
vn -0.6427 -0.0033 -0.7661
vn -0.5340 -0.0000 0.8455
vn -0.0308 -0.9944 0.1015
vn -0.0500 -0.9944 0.0935
vn -0.0673 -0.9944 0.0820
vn -0.0820 -0.9944 0.0673
vn -0.0935 -0.9944 0.0500
vn -0.1015 -0.9944 0.0308
vn -0.1055 -0.9944 0.0104
vn -0.1055 -0.9944 -0.0104
vn -0.1015 -0.9944 -0.0308
vn -0.0935 -0.9944 -0.0500
vn -0.0820 -0.9944 -0.0673
vn -0.0673 -0.9944 -0.0820
vn -0.0500 -0.9944 -0.0935
vn -0.0308 -0.9944 -0.1015
vn -0.0102 -0.9943 -0.1057
vn 0.0104 -0.9943 -0.1060
vn 0.0103 -0.9945 -0.1046
vn -0.0097 -0.9944 -0.1052
vn 0.0082 -0.9965 0.0829
vn 0.0014 -0.9952 0.0981
vn -0.0083 0.9929 -0.1190
vn -0.0143 0.9893 -0.1453
vn -0.5323 -0.0000 0.8465
usemtl Material.001
s off
f 2//1 4//1 5//1 3//1
f 4//2 6//2 7//2 5//2
f 6//3 8//3 9//3 7//3
f 8//4 10//4 11//4 9//4
f 10//5 12//5 13//5 11//5
f 12//6 14//6 15//6 13//6
f 14//7 16//7 17//7 15//7
f 16//8 18//8 19//8 17//8
f 18//9 20//9 21//9 19//9
f 20//10 22//10 23//10 21//10
f 22//11 24//11 25//11 23//11
f 24//12 26//12 27//12 25//12
f 26//13 28//13 29//13 27//13
f 28//14 30//14 31//14 29//14
f 52//15 55//15 57//15 59//15 61//15 63//15 65//15 67//15 69//15 71//15 73//15 75//15 77//15 79//15 81//15 83//15 84//15 122//15 123//15
f 52//16 53//16 56//16 55//16
f 55//17 56//17 58//17 57//17
f 57//18 58//18 60//18 59//18
f 59//19 60//19 62//19 61//19
f 61//20 62//20 64//20 63//20
f 63//21 64//21 66//21 65//21
f 65//22 66//22 68//22 67//22
f 67//23 68//23 70//23 69//23
f 69//24 70//24 72//24 71//24
f 71//25 72//25 74//25 73//25
f 73//26 74//26 76//26 75//26
f 75//27 76//27 78//27 77//27
f 77//28 78//28 80//28 79//28
f 79//29 80//29 82//29 81//29
f 108//30 80//30 82//30 107//30
f 109//31 78//31 80//31 108//31
f 110//32 76//32 78//32 109//32
f 111//33 74//33 76//33 110//33
f 112//34 72//34 74//34 111//34
f 113//35 70//35 72//35 112//35
f 114//36 68//36 70//36 113//36
f 115//37 66//37 68//37 114//37
f 116//38 64//38 66//38 115//38
f 117//39 62//39 64//39 116//39
f 118//40 60//40 62//40 117//40
f 119//41 58//41 60//41 118//41
f 120//42 56//42 58//42 119//42
f 121//43 53//43 56//43 120//43
f 36//43 121//43 120//43 37//43
f 37//42 120//42 119//42 38//42
f 38//41 119//41 118//41 39//41
f 39//40 118//40 117//40 40//40
f 40//39 117//39 116//39 41//39
f 41//38 116//38 115//38 42//38
f 42//37 115//37 114//37 43//37
f 43//36 114//36 113//36 44//36
f 44//35 113//35 112//35 45//35
f 45//34 112//34 111//34 46//34
f 46//33 111//33 110//33 47//33
f 47//32 110//32 109//32 48//32
f 48//31 109//31 108//31 49//31
f 49//30 108//30 107//30 50//30
f 106//44 105//44 132//44
f 1//45 3//45 2//45 124//45
f 34//46 1//46 124//46
f 129//47 105//47 106//47
f 129//48 106//48 107//48 82//48
f 32//49 130//49 31//49 30//49
f 33//50 130//50 32//50
f 83//51 81//51 82//51 131//51
f 84//52 83//52 131//52
f 106//53 132//53 50//53 107//53
f 2//54 104//54 103//54 33//54 32//54 30//54 28//54 26//54 24//54 22//54 20//54 18//54 16//54 14//54 12//54 10//54 8//54 6//54 4//54
f 54//55 85//55 133//55
f 53//56 54//56 133//56 52//56
f 35//57 51//57 134//57
f 35//58 134//58 121//58 36//58
f 85//59 54//59 135//59
f 54//60 53//60 121//60 135//60
f 134//61 51//61 126//61
f 126//62 86//62 121//62 134//62
f 135//63 121//63 86//63 125//63
f 135//64 125//64 34//64 85//64
f 124//65 133//65 85//65 34//65
f 133//66 124//66 2//66 52//66
f 104//67 2//67 52//67 123//67
f 104//68 123//68 122//68 103//68
f 103//67 122//67 84//67 33//67
f 130//69 33//69 84//69 131//69
f 130//70 131//70 82//70 31//70
f 129//71 82//71 31//71 128//71
f 129//72 128//72 102//72 105//72
f 102//73 127//73 132//73 105//73
f 127//74 50//74 132//74
usemtl Material.002
f 86//75 87//75 5//75 3//75
f 87//76 88//76 7//76 5//76
f 88//77 89//77 9//77 7//77
f 89//78 90//78 11//78 9//78
f 90//79 91//79 13//79 11//79
f 91//80 92//80 15//80 13//80
f 92//81 93//81 17//81 15//81
f 93//82 94//82 19//82 17//82
f 94//83 95//83 21//83 19//83
f 95//84 96//84 23//84 21//84
f 96//85 97//85 25//85 23//85
f 97//86 98//86 27//86 25//86
f 98//87 99//87 29//87 27//87
f 99//88 100//88 31//88 29//88
f 49//88 50//88 100//88 99//88
f 48//87 49//87 99//87 98//87
f 47//86 48//86 98//86 97//86
f 46//85 47//85 97//85 96//85
f 45//84 46//84 96//84 95//84
f 44//83 45//83 95//83 94//83
f 43//82 44//82 94//82 93//82
f 42//81 43//81 93//81 92//81
f 41//80 42//80 92//80 91//80
f 40//79 41//79 91//79 90//79
f 39//78 40//78 90//78 89//78
f 38//77 39//77 89//77 88//77
f 37//76 38//76 88//76 87//76
f 36//75 37//75 87//75 86//75
f 35//89 126//89 51//89
f 86//90 126//90 35//90 36//90
f 1//91 125//91 86//91 3//91
f 34//92 125//92 1//92
f 100//93 50//93 127//93 101//93
f 127//94 102//94 101//94
f 100//95 101//95 128//95 31//95
f 128//96 101//96 102//96
usemtl Material.003
f 187//15 188//15 258//15 257//15 191//15 193//15 195//15 197//15 199//15 201//15 203//15 205//15 207//15 209//15 211//15 213//15 215//15 217//15 219//15
f 154//97 156//97 157//97 155//97
f 156//98 158//98 159//98 157//98
f 158//99 160//99 161//99 159//99
f 160//100 162//100 163//100 161//100
f 162//101 164//101 165//101 163//101
f 164//102 166//102 167//102 165//102
f 166//103 168//103 169//103 167//103
f 140//104 142//104 143//104 141//104
f 142//105 144//105 145//105 143//105
f 144//106 146//106 147//106 145//106
f 146//107 148//107 149//107 147//107
f 148//108 150//108 151//108 149//108
f 150//109 152//109 153//109 151//109
f 152//110 154//110 155//110 153//110
f 205//111 206//111 208//111 207//111
f 207//112 208//112 210//112 209//112
f 209//113 210//113 212//113 211//113
f 211//114 212//114 214//114 213//114
f 213//115 214//115 216//115 215//115
f 215//116 216//116 218//116 217//116
f 217//117 218//117 220//117 219//117
f 191//118 192//118 194//118 193//118
f 193//119 194//119 196//119 195//119
f 195//120 196//120 198//120 197//120
f 197//121 198//121 200//121 199//121
f 199//122 200//122 202//122 201//122
f 201//123 202//123 204//123 203//123
f 203//124 204//124 206//124 205//124
f 241//125 200//125 202//125 238//125
f 242//126 198//126 200//126 241//126
f 243//127 196//127 198//127 242//127
f 244//128 194//128 196//128 243//128
f 245//129 192//129 194//129 244//129
f 249//130 218//130 220//130 248//130
f 250//131 216//131 218//131 249//131
f 251//132 214//132 216//132 250//132
f 252//133 212//133 214//133 251//133
f 253//134 210//134 212//134 252//134
f 254//135 208//135 210//135 253//135
f 255//136 206//136 208//136 254//136
f 256//137 204//137 206//137 255//137
f 238//138 202//138 204//138 256//138
f 177//138 238//138 256//138 178//138
f 178//137 256//137 255//137 179//137
f 179//136 255//136 254//136 180//136
f 180//135 254//135 253//135 181//135
f 181//134 253//134 252//134 182//134
f 182//133 252//133 251//133 183//133
f 183//132 251//132 250//132 184//132
f 184//131 250//131 249//131 185//131
f 185//130 249//130 248//130 186//130
f 171//139 170//139 267//139
f 172//129 245//129 244//129 173//129
f 173//128 244//128 243//128 174//128
f 174//127 243//127 242//127 175//127
f 175//126 242//126 241//126 176//126
f 176//125 241//125 238//125 177//125
f 168//140 136//140 259//140 169//140
f 137//141 259//141 136//141
f 190//142 264//142 245//142 192//142
f 189//143 264//143 190//143
f 139//49 138//49 265//49
f 139//50 265//50 140//50 141//50
f 190//51 266//51 189//51
f 190//52 192//52 191//52 266//52
f 172//144 171//144 267//144 245//144
f 136//54 168//54 166//54 164//54 162//54 160//54 158//54 156//54 154//54 152//54 150//54 148//54 146//54 144//54 142//54 140//54 239//54 240//54 137//54
f 188//145 187//145 268//145
f 187//146 219//146 220//146 268//146
f 248//57 247//57 269//57 186//57
f 247//58 246//58 269//58
f 247//58 270//58 246//58
f 248//57 220//57 270//57 247//57
f 262//147 267//147 170//147
f 223//148 245//148 267//148 262//148
f 264//72 263//72 223//72 245//72
f 264//71 189//71 138//71 263//71
f 265//149 138//149 189//149 266//149
f 265//150 266//150 191//150 140//150
f 239//151 140//151 191//151 257//151
f 240//152 239//152 257//152 258//152
f 240//151 258//151 188//151 137//151
f 268//66 259//66 137//66 188//66
f 259//65 268//65 220//65 169//65
f 260//153 270//153 220//153 169//153
f 260//154 222//154 246//154 270//154
f 261//155 269//155 246//155 222//155
usemtl Material.004
f 223//156 224//156 143//156 141//156
f 224//157 225//157 145//157 143//157
f 225//158 226//158 147//158 145//158
f 226//159 227//159 149//159 147//159
f 227//160 228//160 151//160 149//160
f 228//161 229//161 153//161 151//161
f 229//162 230//162 155//162 153//162
f 230//163 231//163 157//163 155//163
f 231//164 232//164 159//164 157//164
f 232//165 233//165 161//165 159//165
f 233//166 234//166 163//166 161//166
f 234//167 235//167 165//167 163//167
f 235//168 236//168 167//168 165//168
f 236//169 237//169 169//169 167//169
f 185//169 186//169 237//169 236//169
f 184//168 185//168 236//168 235//168
f 183//167 184//167 235//167 234//167
f 182//166 183//166 234//166 233//166
f 181//165 182//165 233//165 232//165
f 180//164 181//164 232//164 231//164
f 179//163 180//163 231//163 230//163
f 178//162 179//162 230//162 229//162
f 177//161 178//161 229//161 228//161
f 176//160 177//160 228//160 227//160
f 175//159 176//159 227//159 226//159
f 174//158 175//158 226//158 225//158
f 173//157 174//157 225//157 224//157
f 172//156 173//156 224//156 223//156
f 237//170 186//170 261//170 221//170
f 221//171 261//171 222//171
f 221//172 222//172 260//172
f 237//173 221//173 260//173 169//173
f 171//174 262//174 170//174
f 223//175 262//175 171//175 172//175
f 139//176 141//176 223//176 263//176
f 138//177 139//177 263//177
f 269//178 261//178 186//178
