# Blender v2.80 (sub 75) OBJ File: 'organik2.blend'
# www.blender.org
mtllib organik2.mtl
o Circle_Circle.001
v -0.843664 3.263048 0.000000
v -1.543867 3.672907 0.000000
v -2.528053 3.710144 0.000000
v -2.234350 3.021999 0.000000
v -3.428397 2.794140 0.000000
v -3.317151 2.515521 0.000000
v -3.478770 3.528501 0.000000
v -4.398169 3.121483 0.000000
v -4.867096 2.798213 0.000000
v -4.939128 2.390216 0.000000
v -4.378196 1.474826 0.000000
v -3.177798 0.443792 0.000000
v -2.445128 0.216216 0.000000
v 2.533762 0.094026 0.000000
v 2.146137 -0.311227 -0.000000
v 1.955711 -0.146535 0.000000
v 2.242047 0.499043 0.000000
v 2.046083 0.805031 0.000000
v 1.621024 0.357911 0.000000
v 1.478894 0.428595 0.000000
v 1.728194 1.193853 0.000000
v 1.385464 1.377978 0.000000
v 0.902155 0.801344 0.000000
v 0.730945 0.945487 0.000000
v 1.043450 1.900961 0.000000
v 0.644044 2.193815 0.000000
v 0.011418 1.295145 0.000000
v -0.146168 1.446307 0.000000
v 0.185700 2.640656 0.000000
v -0.237403 2.830194 0.000000
v -0.888246 1.727715 0.000000
v -1.436116 2.186538 0.000000
v 2.794193 -0.073894 -0.000000
v 2.559288 -0.724115 -0.000000
v 2.741508 -0.865966 -0.000000
v 2.858552 -0.382128 -0.000000
v -0.492841 0.458365 0.000000
v 4.768172 -0.213949 -0.000000
v 4.978878 -0.445514 -0.000000
v 3.418974 -2.132672 -0.000000
v 2.445652 -3.754654 -0.000000
v 2.228369 -3.682065 -0.000000
v 1.764504 -2.177783 -0.000000
v 0.915740 -0.619549 -0.000000
v -1.191640 -0.388366 -0.000000
v 2.232439 -1.538960 -0.000000
v 2.075772 -1.379905 -0.000000
v 1.249243 -1.890711 -0.000000
v 1.083525 -1.659237 -0.000000
v 1.560511 -1.020415 -0.000000
v 1.403845 -0.933777 -0.000000
v 0.595420 -1.517001 -0.000000
v 0.393493 -1.294580 -0.000000
v 0.809955 -0.510226 -0.000000
v -0.110528 -1.097921 -0.000000
v -0.415462 -0.780398 -0.000000
v 0.202928 -0.127943 0.000000
v 0.106194 -0.027672 0.000000
v -0.886706 -0.687785 -0.000000
v -0.675198 0.539307 0.000000
v -1.681304 -0.167293 0.000000
v -1.972286 0.103744 0.000000
v -1.321841 0.854548 0.000000
v -1.927840 1.281283 0.000000
v -2.245978 2.695656 0.000000
v -2.502771 2.677339 0.000000
v -2.394961 2.294419 0.000000
v -2.689471 2.294960 0.000000
v -2.836726 2.697551 0.000000
v -3.023019 2.951684 0.000000
v -2.743366 3.184664 0.000000
v -2.721449 2.996465 0.000000
v -2.939769 3.325910 0.000000
v -0.843664 3.263048 0.000000
v -1.543867 3.672907 0.000000
v -2.528053 3.710144 0.000000
v -3.478770 3.528501 0.000000
v -4.398169 3.121483 0.000000
v -4.867096 2.798213 0.000000
v -4.939128 2.390216 0.000000
v -4.378196 1.474826 0.000000
v -3.177798 0.443792 0.000000
v -2.445128 0.216216 0.000000
v 2.533762 0.094026 0.000000
v 2.146137 -0.311227 -0.000000
v 1.955711 -0.146535 0.000000
v 2.242047 0.499043 0.000000
v 2.046083 0.805031 0.000000
v 1.621024 0.357911 0.000000
v 1.478894 0.428595 0.000000
v 1.728194 1.193853 0.000000
v 1.385464 1.377978 0.000000
v 0.902155 0.801344 0.000000
v 0.730945 0.945487 0.000000
v 1.043450 1.900961 0.000000
v 0.644044 2.193815 0.000000
v 0.011418 1.295145 0.000000
v -0.146168 1.446307 0.000000
v 0.185700 2.640656 0.000000
v -0.237403 2.830194 0.000000
v -0.888246 1.727715 0.000000
v -1.436116 2.186538 0.000000
v 2.794193 -0.073894 -0.000000
v 2.559288 -0.724115 -0.000000
v 2.741508 -0.865966 -0.000000
v 2.858552 -0.382128 -0.000000
v -0.492841 0.458365 0.000000
v 4.768172 -0.213949 -0.000000
v 4.978878 -0.445514 -0.000000
v 3.418974 -2.132672 -0.000000
v 2.445652 -3.754654 -0.000000
v 2.228369 -3.682065 -0.000000
v 1.764504 -2.177783 -0.000000
v 0.915740 -0.619549 -0.000000
v -1.191640 -0.388366 -0.000000
v 2.232439 -1.538960 -0.000000
v 2.075772 -1.379905 -0.000000
v 1.249243 -1.890711 -0.000000
v 1.083525 -1.659237 -0.000000
v 1.560511 -1.020415 -0.000000
v 1.403845 -0.933777 -0.000000
v 0.595420 -1.517001 -0.000000
v 0.393493 -1.294580 -0.000000
v 0.809955 -0.510226 -0.000000
v -0.110528 -1.097921 -0.000000
v -0.415462 -0.780398 -0.000000
v 0.202928 -0.127943 0.000000
v 0.106194 -0.027672 0.000000
v -0.886706 -0.687785 -0.000000
v -0.675198 0.539307 0.000000
v -1.681304 -0.167293 0.000000
v -1.972286 0.103744 0.000000
v -1.321841 0.854548 0.000000
v -1.927840 1.281283 0.000000
v -0.843664 3.263048 0.000000
v -1.543867 3.672907 0.000000
v -2.528053 3.710144 0.000000
v -3.478770 3.528501 0.000000
v -4.398169 3.121483 0.000000
v -4.867096 2.798213 0.000000
v -4.939128 2.390216 0.000000
v -4.378196 1.474826 0.000000
v -3.177798 0.443792 0.000000
v -2.445128 0.216216 0.000000
v 2.533762 0.094026 0.000000
v 2.146137 -0.311227 -0.000000
v 1.955711 -0.146535 0.000000
v 2.242047 0.499043 0.000000
v 2.046083 0.805031 0.000000
v 1.621024 0.357911 0.000000
v 1.478894 0.428595 0.000000
v 1.728194 1.193853 0.000000
v 1.385464 1.377978 0.000000
v 0.902155 0.801344 0.000000
v 0.730945 0.945487 0.000000
v 1.043450 1.900961 0.000000
v 0.644044 2.193815 0.000000
v 0.011418 1.295145 0.000000
v -0.146168 1.446307 0.000000
v 0.185700 2.640656 0.000000
v -0.237403 2.830194 0.000000
v -0.888246 1.727715 0.000000
v -1.436116 2.186538 0.000000
v 2.794193 -0.073894 -0.000000
v 2.559288 -0.724115 -0.000000
v 2.741508 -0.865966 -0.000000
v 2.858552 -0.382128 -0.000000
v -0.492841 0.458365 0.000000
v 4.768172 -0.213949 -0.000000
v 4.978878 -0.445514 -0.000000
v 3.418974 -2.132672 -0.000000
v 2.445652 -3.754654 -0.000000
v 2.228369 -3.682065 -0.000000
v 1.764504 -2.177783 -0.000000
v 0.915740 -0.619549 -0.000000
v -1.191640 -0.388366 -0.000000
v 2.232439 -1.538960 -0.000000
v 2.075772 -1.379905 -0.000000
v 1.249243 -1.890711 -0.000000
v 1.083525 -1.659237 -0.000000
v 1.560511 -1.020415 -0.000000
v 1.403845 -0.933777 -0.000000
v 0.595420 -1.517001 -0.000000
v 0.393493 -1.294580 -0.000000
v 0.809955 -0.510226 -0.000000
v -0.110528 -1.097921 -0.000000
v -0.415462 -0.780398 -0.000000
v 0.202928 -0.127943 0.000000
v 0.106194 -0.027672 0.000000
v -0.886706 -0.687785 -0.000000
v -0.675198 0.539307 0.000000
v -1.681304 -0.167293 0.000000
v -1.972286 0.103744 0.000000
v -1.321841 0.854548 0.000000
v -1.927840 1.281283 0.000000
v -1.543867 3.672907 0.362715
v -0.843664 3.263048 0.362715
v -2.528053 3.710144 0.362715
v -2.234350 3.021999 0.362715
v -2.245978 2.695656 0.362715
v -2.721449 2.996465 0.362715
v -3.317151 2.515521 0.362715
v -3.428397 2.794140 0.362715
v -2.836726 2.697551 0.362715
v -4.398169 3.121483 0.362715
v -3.478770 3.528501 0.362715
v -4.867096 2.798213 0.362715
v -4.939128 2.390216 0.362715
v -4.378196 1.474826 0.362715
v -3.177798 0.443792 0.362714
v -2.445128 0.216216 0.362714
v -1.927840 1.281283 0.362715
v 2.146137 -0.311227 0.362714
v 2.533762 0.094026 0.362714
v 1.955711 -0.146535 0.362714
v 2.242047 0.499043 0.362714
v 2.046083 0.805031 0.362714
v 1.621024 0.357911 0.362714
v 1.478894 0.428595 0.362714
v 1.728194 1.193853 0.362715
v 1.385464 1.377978 0.362715
v 0.902155 0.801344 0.362714
v 0.730945 0.945487 0.362714
v 1.043450 1.900961 0.362715
v 0.644044 2.193815 0.362715
v 0.011418 1.295145 0.362714
v -0.146168 1.446307 0.362714
v 0.185700 2.640656 0.362715
v -0.237403 2.830194 0.362715
v -0.888246 1.727715 0.362714
v -1.436116 2.186538 0.362714
v 2.794193 -0.073894 0.362714
v 2.559288 -0.724115 0.362714
v 2.741508 -0.865966 0.362714
v 2.858552 -0.382128 0.362714
v -1.191640 -0.388366 0.362714
v -0.492841 0.458365 0.362714
v 4.768172 -0.213949 0.362714
v 4.978878 -0.445514 0.362714
v 3.418974 -2.132672 0.362714
v 2.445652 -3.754654 0.362714
v 2.228369 -3.682065 0.362714
v 1.764504 -2.177783 0.362714
v 0.393493 -1.294580 0.362714
v 0.915740 -0.619549 0.362714
v -0.886706 -0.687785 0.362714
v 2.232439 -1.538960 0.362714
v 2.075772 -1.379905 0.362714
v 1.249243 -1.890711 0.362714
v 1.083525 -1.659237 0.362714
v 1.560511 -1.020415 0.362714
v 1.403845 -0.933777 0.362714
v 0.595420 -1.517001 0.362714
v 0.809955 -0.510226 0.362714
v -0.110528 -1.097921 0.362714
v -0.415462 -0.780398 0.362714
v 0.202928 -0.127943 0.362714
v 0.106194 -0.027672 0.362714
v -0.675198 0.539307 0.362714
v -1.681304 -0.167293 0.362714
v -1.972286 0.103744 0.362714
v -1.321841 0.854548 0.362714
v -2.502771 2.677339 0.362715
v -2.394961 2.294419 0.362715
v -2.689471 2.294960 0.362715
v -3.023019 2.951684 0.362715
v -2.939769 3.325910 0.362715
v -2.743366 3.184664 0.362715
v -1.543867 3.672907 0.362715
v -0.843664 3.263048 0.362715
v -2.528053 3.710144 0.362715
v -4.398169 3.121483 0.362715
v -3.478770 3.528501 0.362715
v -4.867096 2.798213 0.362715
v -4.939128 2.390216 0.362715
v -4.378196 1.474826 0.362715
v -3.177798 0.443792 0.362714
v -2.445128 0.216216 0.362714
v -1.927840 1.281283 0.362715
v 2.146137 -0.311227 0.362714
v 2.533762 0.094026 0.362714
v 1.955711 -0.146535 0.362714
v 2.242047 0.499043 0.362714
v 2.046083 0.805031 0.362714
v 1.621024 0.357911 0.362714
v 1.478894 0.428595 0.362714
v 1.728194 1.193853 0.362715
v 1.385464 1.377978 0.362715
v 0.902155 0.801344 0.362714
v 0.730945 0.945487 0.362714
v 1.043450 1.900961 0.362715
v 0.644044 2.193815 0.362715
v 0.011418 1.295145 0.362714
v -0.146168 1.446307 0.362714
v 0.185700 2.640656 0.362715
v -0.237403 2.830194 0.362715
v -0.888246 1.727715 0.362714
v -1.436116 2.186538 0.362714
v 2.794193 -0.073894 0.362714
v 2.559288 -0.724115 0.362714
v 2.741508 -0.865966 0.362714
v 2.858552 -0.382128 0.362714
v -1.191640 -0.388366 0.362714
v -0.492841 0.458365 0.362714
v 4.768172 -0.213949 0.362714
v 4.978878 -0.445514 0.362714
v 3.418974 -2.132672 0.362714
v 2.445652 -3.754654 0.362714
v 2.228369 -3.682065 0.362714
v 1.764504 -2.177783 0.362714
v 0.393493 -1.294580 0.362714
v 0.915740 -0.619549 0.362714
v -0.886706 -0.687785 0.362714
v 2.232439 -1.538960 0.362714
v 2.075772 -1.379905 0.362714
v 1.249243 -1.890711 0.362714
v 1.083525 -1.659237 0.362714
v 1.560511 -1.020415 0.362714
v 1.403845 -0.933777 0.362714
v 0.595420 -1.517001 0.362714
v 0.809955 -0.510226 0.362714
v -0.110528 -1.097921 0.362714
v -0.415462 -0.780398 0.362714
v 0.202928 -0.127943 0.362714
v 0.106194 -0.027672 0.362714
v -0.675198 0.539307 0.362714
v -1.681304 -0.167293 0.362714
v -1.972286 0.103744 0.362714
v -1.321841 0.854548 0.362714
v -1.543867 3.672907 0.362715
v -0.843664 3.263048 0.362715
v -2.528053 3.710144 0.362715
v -4.398169 3.121483 0.362715
v -3.478770 3.528501 0.362715
v -4.867096 2.798213 0.362715
v -4.939128 2.390216 0.362715
v -4.378196 1.474826 0.362715
v -3.177798 0.443792 0.362714
v -2.445128 0.216216 0.362714
v -1.927840 1.281283 0.362715
v 2.146137 -0.311227 0.362714
v 2.533762 0.094026 0.362714
v 1.955711 -0.146535 0.362714
v 2.242047 0.499043 0.362714
v 2.046083 0.805031 0.362714
v 1.621024 0.357911 0.362714
v 1.478894 0.428595 0.362714
v 1.728194 1.193853 0.362715
v 1.385464 1.377978 0.362715
v 0.902155 0.801344 0.362714
v 0.730945 0.945487 0.362714
v 1.043450 1.900961 0.362715
v 0.644044 2.193815 0.362715
v 0.011418 1.295145 0.362714
v -0.146168 1.446307 0.362714
v 0.185700 2.640656 0.362715
v -0.237403 2.830194 0.362715
v -0.888246 1.727715 0.362714
v -1.436116 2.186538 0.362714
v 2.794193 -0.073894 0.362714
v 2.559288 -0.724115 0.362714
v 2.741508 -0.865966 0.362714
v 2.858552 -0.382128 0.362714
v -1.191640 -0.388366 0.362714
v -0.492841 0.458365 0.362714
v 4.768172 -0.213949 0.362714
v 4.978878 -0.445514 0.362714
v 3.418974 -2.132672 0.362714
v 2.445652 -3.754654 0.362714
v 2.228369 -3.682065 0.362714
v 1.764504 -2.177783 0.362714
v 0.393493 -1.294580 0.362714
v 0.915740 -0.619549 0.362714
v -0.886706 -0.687785 0.362714
v 2.232439 -1.538960 0.362714
v 2.075772 -1.379905 0.362714
v 1.249243 -1.890711 0.362714
v 1.083525 -1.659237 0.362714
v 1.560511 -1.020415 0.362714
v 1.403845 -0.933777 0.362714
v 0.595420 -1.517001 0.362714
v 0.809955 -0.510226 0.362714
v -0.110528 -1.097921 0.362714
v -0.415462 -0.780398 0.362714
v 0.202928 -0.127943 0.362714
v 0.106194 -0.027672 0.362714
v -0.675198 0.539307 0.362714
v -1.681304 -0.167293 0.362714
v -1.972286 0.103744 0.362714
v -1.321841 0.854548 0.362714
vn -0.0000 0.0000 -1.0000
vn 0.0000 0.0000 1.0000
vn 0.5257 -0.8507 0.0000
vn -0.7664 0.6424 0.0000
vn 0.9391 0.3435 0.0000
vn -0.8131 -0.5821 0.0000
vn 0.6440 0.7650 0.0000
vn 0.3622 -0.9321 0.0000
vn -0.8013 0.5983 0.0000
vn 0.9505 -0.3109 0.0000
vn -0.5839 -0.8119 0.0000
vn -0.4839 -0.8751 0.0000
vn 0.5913 0.8064 0.0000
vn -0.9933 -0.1157 0.0000
vn 0.5851 -0.8110 0.0000
vn -0.8177 0.5756 0.0000
vn 0.9761 -0.2172 0.0000
vn -0.7404 -0.6722 0.0000
vn 0.6922 0.7217 0.0000
vn -0.7186 -0.6954 0.0000
vn 0.9635 -0.2677 0.0000
vn 0.5381 -0.8429 0.0000
vn 0.4088 0.9126 0.0000
vn -0.7213 -0.6927 0.0000
vn -0.8611 0.5084 0.0000
vn -0.7258 0.6879 0.0000
vn 0.6421 0.7667 0.0000
vn 0.5052 0.8630 0.0000
vn -0.7197 -0.6943 0.0000
vn 0.8761 -0.4822 0.0000
vn 0.0378 0.9993 0.0000
vn 0.5536 -0.8328 0.0000
vn 0.5419 0.8404 0.0000
vn -0.4048 0.9144 0.0000
vn -0.4057 -0.9140 0.0000
vn 0.9405 -0.3398 0.0000
vn -0.5676 0.8233 0.0000
vn 0.5747 -0.8183 0.0000
vn -0.9994 0.0356 0.0000
vn 0.6143 0.7891 0.0000
vn -0.9848 0.1739 0.0000
vn -0.6816 -0.7317 0.0000
vn 0.0523 -0.9986 0.0000
vn -0.9720 0.2351 0.0000
vn -0.8526 -0.5225 0.0000
vn -0.7558 0.6548 0.0000
vn 0.9287 0.3708 0.0000
vn -0.7713 0.6365 0.0000
vn -0.6516 -0.7586 0.0000
vn -0.5758 -0.8176 0.0000
vn -0.3543 0.9351 0.0000
vn -0.0877 0.9961 0.0000
vn -0.2966 -0.9550 0.0000
vn -0.1877 0.9822 0.0000
vn 0.7396 0.6730 0.0000
vn 0.8995 -0.4369 0.0000
vn 0.7343 -0.6789 0.0000
vn -0.7226 0.6912 0.0000
vn 0.8575 -0.5145 0.0000
vn 0.6541 0.7564 0.0000
vn -0.3169 -0.9485 0.0000
vn 0.9141 -0.4054 0.0000
vn -0.9556 -0.2947 0.0000
vn 0.8421 0.5393 0.0000
vn -0.7909 0.6119 0.0000
vn -0.7248 0.6890 0.0000
vn -0.7006 -0.7135 0.0000
vn 0.4453 0.8954 0.0000
vn -0.0712 0.9975 0.0000
vn -0.8067 0.5909 0.0000
vn 0.9508 -0.3098 0.0000
vn -0.9626 -0.2710 0.0000
vn -0.7124 -0.7017 0.0000
vn 0.4733 0.8809 0.0000
vn 0.0018 1.0000 0.0000
usemtl Material.001
s off
f 67//1 66//1 65//1 4//1 72//1 71//1 73//1 70//1 5//1 9//1 8//1 7//1 3//1 2//1 1//1 32//1
f 5//1 6//1 69//1 68//1 67//1 32//1 64//1 13//1 12//1 11//1 10//1 9//1
f 64//1 32//1 31//1 30//1 29//1 28//1 60//1 61//1 62//1 63//1
f 28//1 27//1 37//1 60//1
f 24//1 23//1 57//1 58//1
f 20//1 19//1 44//1 54//1
f 16//1 15//1 50//1 51//1
f 34//1 35//1 46//1 47//1
f 36//1 38//1 39//1 40//1 41//1 42//1 43//1 46//1 35//1
f 50//1 15//1 14//1 33//1 34//1 47//1 48//1 49//1
f 44//1 19//1 18//1 17//1 16//1 51//1 52//1 53//1
f 57//1 23//1 22//1 21//1 20//1 54//1 55//1 56//1
f 37//1 27//1 26//1 25//1 24//1 58//1 59//1 45//1
f 42//2 41//2 111//2 112//2
f 17//2 16//2 86//2 87//2
f 43//2 42//2 112//2 113//2
f 18//2 17//2 87//2 88//2
f 53//2 44//2 114//2 123//2
f 19//2 18//2 88//2 89//2
f 45//2 59//2 129//2 115//2
f 20//2 19//2 89//2 90//2
f 46//2 43//2 113//2 116//2
f 21//2 20//2 90//2 91//2
f 47//2 46//2 116//2 117//2
f 22//2 21//2 91//2 92//2
f 47//2 48//2 118//2 117//2
f 23//2 22//2 92//2 93//2
f 48//2 49//2 119//2 118//2
f 24//2 23//2 93//2 94//2
f 49//2 50//2 120//2 119//2
f 24//2 25//2 95//2 94//2
f 50//2 51//2 121//2 120//2
f 25//2 26//2 96//2 95//2
f 51//2 52//2 122//2 121//2
f 26//2 27//2 97//2 96//2
f 52//2 53//2 123//2 122//2
f 27//2 28//2 98//2 97//2
f 1//2 2//2 75//2 74//2
f 44//2 54//2 124//2 114//2
f 28//2 29//2 99//2 98//2
f 2//2 3//2 76//2 75//2
f 54//2 55//2 125//2 124//2
f 29//2 30//2 100//2 99//2
f 55//2 56//2 126//2 125//2
f 30//2 31//2 101//2 100//2
f 56//2 57//2 127//2 126//2
f 31//2 32//2 102//2 101//2
f 57//2 58//2 128//2 127//2
f 32//2 1//2 74//2 102//2
f 59//2 58//2 128//2 129//2
f 14//2 33//2 103//2 84//2
f 7//2 8//2 78//2 77//2
f 60//2 37//2 107//2 130//2
f 33//2 34//2 104//2 103//2
f 8//2 9//2 79//2 78//2
f 61//2 60//2 130//2 131//2
f 35//2 34//2 104//2 105//2
f 9//2 10//2 80//2 79//2
f 62//2 61//2 131//2 132//2
f 36//2 35//2 105//2 106//2
f 10//2 11//2 81//2 80//2
f 63//2 62//2 132//2 133//2
f 37//2 45//2 115//2 107//2
f 11//2 12//2 82//2 81//2
f 64//2 63//2 133//2 134//2
f 38//2 36//2 106//2 108//2
f 12//2 13//2 83//2 82//2
f 3//2 7//2 77//2 76//2
f 39//2 38//2 108//2 109//2
f 13//2 64//2 134//2 83//2
f 40//2 39//2 109//2 110//2
f 15//2 14//2 84//2 85//2
f 41//2 40//2 110//2 111//2
f 16//2 15//2 85//2 86//2
f 76//2 77//2 138//2 137//2
f 109//2 108//2 169//2 170//2
f 83//2 134//2 195//2 144//2
f 110//2 109//2 170//2 171//2
f 85//2 84//2 145//2 146//2
f 111//2 110//2 171//2 172//2
f 86//2 85//2 146//2 147//2
f 112//2 111//2 172//2 173//2
f 87//2 86//2 147//2 148//2
f 113//2 112//2 173//2 174//2
f 88//2 87//2 148//2 149//2
f 123//2 114//2 175//2 184//2
f 89//2 88//2 149//2 150//2
f 115//2 129//2 190//2 176//2
f 90//2 89//2 150//2 151//2
f 116//2 113//2 174//2 177//2
f 91//2 90//2 151//2 152//2
f 117//2 116//2 177//2 178//2
f 92//2 91//2 152//2 153//2
f 117//2 118//2 179//2 178//2
f 93//2 92//2 153//2 154//2
f 118//2 119//2 180//2 179//2
f 94//2 93//2 154//2 155//2
f 119//2 120//2 181//2 180//2
f 94//2 95//2 156//2 155//2
f 120//2 121//2 182//2 181//2
f 95//2 96//2 157//2 156//2
f 121//2 122//2 183//2 182//2
f 96//2 97//2 158//2 157//2
f 122//2 123//2 184//2 183//2
f 97//2 98//2 159//2 158//2
f 114//2 124//2 185//2 175//2
f 98//2 99//2 160//2 159//2
f 124//2 125//2 186//2 185//2
f 99//2 100//2 161//2 160//2
f 125//2 126//2 187//2 186//2
f 100//2 101//2 162//2 161//2
f 126//2 127//2 188//2 187//2
f 101//2 102//2 163//2 162//2
f 74//2 75//2 136//2 135//2
f 127//2 128//2 189//2 188//2
f 102//2 74//2 135//2 163//2
f 75//2 76//2 137//2 136//2
f 129//2 128//2 189//2 190//2
f 84//2 103//2 164//2 145//2
f 77//2 78//2 139//2 138//2
f 130//2 107//2 168//2 191//2
f 103//2 104//2 165//2 164//2
f 78//2 79//2 140//2 139//2
f 131//2 130//2 191//2 192//2
f 105//2 104//2 165//2 166//2
f 79//2 80//2 141//2 140//2
f 132//2 131//2 192//2 193//2
f 106//2 105//2 166//2 167//2
f 80//2 81//2 142//2 141//2
f 133//2 132//2 193//2 194//2
f 107//2 115//2 176//2 168//2
f 81//2 82//2 143//2 142//2
f 134//2 133//2 194//2 195//2
f 108//2 106//2 167//2 169//2
f 82//2 83//2 144//2 143//2
f 264//2 231//2 197//2 196//2 198//2 206//2 205//2 207//2 203//2 266//2 267//2 268//2 201//2 199//2 200//2 263//2
f 203//2 207//2 208//2 209//2 210//2 211//2 212//2 231//2 264//2 265//2 204//2 202//2
f 212//2 262//2 261//2 260//2 259//2 227//2 228//2 229//2 230//2 231//2
f 227//2 259//2 237//2 226//2
f 223//2 258//2 257//2 222//2
f 219//2 254//2 245//2 218//2
f 215//2 252//2 251//2 213//2
f 233//2 248//2 247//2 234//2
f 235//2 234//2 247//2 243//2 242//2 241//2 240//2 239//2 238//2
f 251//2 250//2 249//2 248//2 233//2 232//2 214//2 213//2
f 245//2 244//2 253//2 252//2 215//2 216//2 217//2 218//2
f 257//2 256//2 255//2 254//2 219//2 220//2 221//2 222//2
f 237//2 236//2 246//2 258//2 223//2 224//2 225//2 226//2
f 242//2 309//2 308//2 241//2
f 216//2 283//2 282//2 215//2
f 243//2 310//2 309//2 242//2
f 217//2 284//2 283//2 216//2
f 244//2 311//2 312//2 245//2
f 218//2 285//2 284//2 217//2
f 236//2 303//2 313//2 246//2
f 219//2 286//2 285//2 218//2
f 247//2 314//2 310//2 243//2
f 220//2 287//2 286//2 219//2
f 248//2 315//2 314//2 247//2
f 221//2 288//2 287//2 220//2
f 248//2 315//2 316//2 249//2
f 222//2 289//2 288//2 221//2
f 249//2 316//2 317//2 250//2
f 223//2 290//2 289//2 222//2
f 250//2 317//2 318//2 251//2
f 223//2 290//2 291//2 224//2
f 251//2 318//2 319//2 252//2
f 224//2 291//2 292//2 225//2
f 252//2 319//2 320//2 253//2
f 225//2 292//2 293//2 226//2
f 253//2 320//2 311//2 244//2
f 226//2 293//2 294//2 227//2
f 197//2 270//2 269//2 196//2
f 245//2 312//2 321//2 254//2
f 227//2 294//2 295//2 228//2
f 196//2 269//2 271//2 198//2
f 254//2 321//2 322//2 255//2
f 228//2 295//2 296//2 229//2
f 255//2 322//2 323//2 256//2
f 229//2 296//2 297//2 230//2
f 256//2 323//2 324//2 257//2
f 230//2 297//2 298//2 231//2
f 257//2 324//2 325//2 258//2
f 231//2 298//2 270//2 197//2
f 246//2 313//2 325//2 258//2
f 214//2 281//2 299//2 232//2
f 206//2 273//2 272//2 205//2
f 259//2 326//2 304//2 237//2
f 232//2 299//2 300//2 233//2
f 205//2 272//2 274//2 207//2
f 260//2 327//2 326//2 259//2
f 234//2 301//2 300//2 233//2
f 207//2 274//2 275//2 208//2
f 261//2 328//2 327//2 260//2
f 235//2 302//2 301//2 234//2
f 208//2 275//2 276//2 209//2
f 262//2 329//2 328//2 261//2
f 237//2 304//2 303//2 236//2
f 209//2 276//2 277//2 210//2
f 212//2 279//2 329//2 262//2
f 238//2 305//2 302//2 235//2
f 210//2 277//2 278//2 211//2
f 198//2 271//2 273//2 206//2
f 239//2 306//2 305//2 238//2
f 211//2 278//2 279//2 212//2
f 240//2 307//2 306//2 239//2
f 213//2 280//2 281//2 214//2
f 241//2 308//2 307//2 240//2
f 215//2 282//2 280//2 213//2
f 271//2 332//2 334//2 273//2
f 306//2 367//2 366//2 305//2
f 278//2 339//2 340//2 279//2
f 307//2 368//2 367//2 306//2
f 280//2 341//2 342//2 281//2
f 308//2 369//2 368//2 307//2
f 282//2 343//2 341//2 280//2
f 309//2 370//2 369//2 308//2
f 283//2 344//2 343//2 282//2
f 310//2 371//2 370//2 309//2
f 284//2 345//2 344//2 283//2
f 311//2 372//2 373//2 312//2
f 285//2 346//2 345//2 284//2
f 303//2 364//2 374//2 313//2
f 286//2 347//2 346//2 285//2
f 314//2 375//2 371//2 310//2
f 287//2 348//2 347//2 286//2
f 315//2 376//2 375//2 314//2
f 288//2 349//2 348//2 287//2
f 315//2 376//2 377//2 316//2
f 289//2 350//2 349//2 288//2
f 316//2 377//2 378//2 317//2
f 290//2 351//2 350//2 289//2
f 317//2 378//2 379//2 318//2
f 290//2 351//2 352//2 291//2
f 318//2 379//2 380//2 319//2
f 291//2 352//2 353//2 292//2
f 319//2 380//2 381//2 320//2
f 292//2 353//2 354//2 293//2
f 320//2 381//2 372//2 311//2
f 293//2 354//2 355//2 294//2
f 312//2 373//2 382//2 321//2
f 294//2 355//2 356//2 295//2
f 321//2 382//2 383//2 322//2
f 295//2 356//2 357//2 296//2
f 322//2 383//2 384//2 323//2
f 296//2 357//2 358//2 297//2
f 323//2 384//2 385//2 324//2
f 297//2 358//2 359//2 298//2
f 270//2 331//2 330//2 269//2
f 324//2 385//2 386//2 325//2
f 298//2 359//2 331//2 270//2
f 269//2 330//2 332//2 271//2
f 313//2 374//2 386//2 325//2
f 281//2 342//2 360//2 299//2
f 273//2 334//2 333//2 272//2
f 326//2 387//2 365//2 304//2
f 299//2 360//2 361//2 300//2
f 272//2 333//2 335//2 274//2
f 327//2 388//2 387//2 326//2
f 301//2 362//2 361//2 300//2
f 274//2 335//2 336//2 275//2
f 328//2 389//2 388//2 327//2
f 302//2 363//2 362//2 301//2
f 275//2 336//2 337//2 276//2
f 329//2 390//2 389//2 328//2
f 304//2 365//2 364//2 303//2
f 276//2 337//2 338//2 277//2
f 279//2 340//2 390//2 329//2
f 305//2 366//2 363//2 302//2
f 277//2 338//2 339//2 278//2
f 179//3 178//3 376//3 377//3
f 153//4 154//4 350//4 349//4
f 69//5 204//5 265//5 68//5
f 180//6 179//6 377//6 378//6
f 154//7 155//7 351//7 350//7
f 70//8 266//8 203//8 5//8
f 181//9 180//9 378//9 379//9
f 156//10 352//10 351//10 155//10
f 71//11 268//11 267//11 73//11
f 182//12 181//12 379//12 380//12
f 157//13 353//13 352//13 156//13
f 72//14 201//14 268//14 71//14
f 183//15 182//15 380//15 381//15
f 158//16 354//16 353//16 157//16
f 73//17 267//17 266//17 70//17
f 184//18 183//18 381//18 372//18
f 159//19 355//19 354//19 158//19
f 185//20 175//20 373//20 382//20
f 160//21 356//21 355//21 159//21
f 186//22 185//22 382//22 383//22
f 161//23 357//23 356//23 160//23
f 187//24 186//24 383//24 384//24
f 162//25 358//25 357//25 161//25
f 188//26 187//26 384//26 385//26
f 163//27 359//27 358//27 162//27
f 136//28 330//28 331//28 135//28
f 189//29 188//29 385//29 386//29
f 135//30 331//30 359//30 163//30
f 137//31 332//31 330//31 136//31
f 189//32 386//32 374//32 190//32
f 164//33 145//33 342//33 360//33
f 139//34 333//34 334//34 138//34
f 168//35 365//35 387//35 191//35
f 165//36 164//36 360//36 361//36
f 140//37 335//37 333//37 139//37
f 191//38 387//38 388//38 192//38
f 65//39 200//39 199//39 4//39
f 165//40 361//40 362//40 166//40
f 141//41 336//41 335//41 140//41
f 192//42 388//42 389//42 193//42
f 4//43 199//43 201//43 72//43
f 166//44 362//44 363//44 167//44
f 142//45 337//45 336//45 141//45
f 193//46 389//46 390//46 194//46
f 5//47 203//47 202//47 6//47
f 176//48 364//48 365//48 168//48
f 143//49 338//49 337//49 142//49
f 194//50 390//50 340//50 195//50
f 6//51 202//51 204//51 69//51
f 167//52 363//52 366//52 169//52
f 144//53 339//53 338//53 143//53
f 138//54 334//54 332//54 137//54
f 169//55 366//55 367//55 170//55
f 195//56 340//56 339//56 144//56
f 170//57 367//57 368//57 171//57
f 145//58 146//58 341//58 342//58
f 171//59 368//59 369//59 172//59
f 146//60 147//60 343//60 341//60
f 172//61 369//61 370//61 173//61
f 147//62 148//62 344//62 343//62
f 173//63 370//63 371//63 174//63
f 148//64 149//64 345//64 344//64
f 175//65 184//65 372//65 373//65
f 149//66 150//66 346//66 345//66
f 190//67 374//67 364//67 176//67
f 150//68 151//68 347//68 346//68
f 66//69 263//69 200//69 65//69
f 174//70 371//70 375//70 177//70
f 151//71 152//71 348//71 347//71
f 67//72 264//72 263//72 66//72
f 177//73 375//73 376//73 178//73
f 152//74 153//74 349//74 348//74
f 68//75 265//75 264//75 67//75
